Coordinates
version=1
nRows=6
nColumns=34
inDegrees=yes

Units are S.I. units (second, meters, Newtons, ...)
If the header above contains a line with 'inDegrees', this indicates whether rotational values are in degrees (yes) or radians (no).

endheader
time	pelvis_tilt	pelvis_list	pelvis_rotation	pelvis_tx	pelvis_ty	pelvis_tz	hip_flexion_r	hip_adduction_r	hip_rotation_r	knee_angle_r	ankle_angle_r	subtalar_angle_r	mtp_angle_r	hip_flexion_l	hip_adduction_l	hip_rotation_l	knee_angle_l	ankle_angle_l	subtalar_angle_l	mtp_angle_l	lumbar_extension	lumbar_bending	lumbar_rotation	arm_flex_r	arm_add_r	arm_rot_r	elbow_flex_r	pro_sup_r	arm_flex_l	arm_add_l	arm_rot_l	elbow_flex_l	pro_sup_l
      1.73333330	    -13.06374558	      1.03360651	     -4.22671597	     -0.04701715	      1.29129982	     -0.08309760	     14.01740809	     -0.02761487	      4.94239542	      3.99843923	      5.39881866	     -7.39008256	      0.00000000	     16.91465764	     -0.61811155	      5.96402367	     10.72645253	      4.76740248	    -11.34054003	      0.00000000	     -5.39553957	     -0.25333035	      0.14317954	      1.16207033	     -4.95717934	     -3.60786502	     25.23697182	    100.16772559	      3.40300332	     -5.38547582	      3.40442564	     25.11190777	     93.68796719
      1.75000000	    -13.08085807	      1.06157100	     -4.22903523	     -0.04627928	      1.29208613	     -0.08317586	     13.99394390	     -0.02001682	      4.93771238	      4.00887299	      5.40044346	     -7.39288853	      0.00000000	     16.93654336	     -0.63175304	      5.96097895	     10.70828215	      4.77421085	    -11.34234521	      0.00000000	     -5.40681376	     -0.25115646	      0.14496000	      1.16788405	     -4.95863253	     -3.61041799	     25.23801404	    100.16921362	      3.40621803	     -5.38372865	      3.40529764	     25.11373505	     93.69028645
      1.76666670	    -13.10695754	      1.08261889	     -4.22027659	     -0.04444823	      1.29314396	     -0.08248005	     14.00317227	     -0.01727259	      4.93195316	      4.00376534	      5.40123117	     -7.39627132	      0.00000000	     16.92508260	     -0.64519648	      5.95764123	     10.70231160	      4.77902135	    -11.34294512	      0.00000000	     -5.42349733	     -0.24887525	      0.14650758	      1.17512694	     -4.96092881	     -3.61311233	     25.23876689	    100.17063584	      3.41204369	     -5.38122305	      3.40621454	     25.11624444	     93.69253236
      1.78333330	    -13.24950756	      1.10327420	     -4.20444843	     -0.04417974	      1.29230636	     -0.08293560	     14.11569962	     -0.04660960	      4.79910039	      3.93066943	      5.38281309	     -7.46486995	      0.00000000	     16.88757607	     -0.63752382	      5.86712832	     10.48971418	      4.82503639	    -11.33813822	      0.00000000	     -5.67318924	     -0.20536204	      0.18742963	      1.22332256	     -4.99270811	     -3.65181671	     25.23266074	    100.19041403	      3.42025638	     -5.37034711	      3.41737665	     25.13011432	     93.72360103
      1.80000000	    -13.27517677	      1.10724562	     -4.20527314	     -0.04358612	      1.28878610	     -0.08208309	     14.11237509	     -0.05926262	      4.78642070	      3.94146449	      5.37733980	     -7.47093644	      0.00000000	     16.85064759	     -0.64975017	      5.86187637	     10.49607500	      4.82518533	    -11.33566741	      0.00000000	     -5.68414287	     -0.20140366	      0.18845152	      1.22988860	     -4.99735231	     -3.65600720	     25.23370086	    100.19217695	      3.42853415	     -5.37102266	      3.41785931	     25.13428716	     93.72642367
      1.81666670	    -13.31458415	      1.12634698	     -4.27675452	     -0.04407017	      1.28865074	     -0.08219175	     14.22587965	     -0.05902159	      4.53867030	      4.16676188	      5.29548908	     -7.61410112	      0.00000000	     16.73199404	     -0.66812666	      5.72397191	     10.34390744	      4.87164293	    -11.31656405	      0.00000000	     -5.96208771	     -0.13597706	      0.23685088	      1.28961532	     -5.09759031	     -3.73530461	     25.23488499	    100.22207356	      3.47503942	     -5.47273551	      3.41432627	     25.16637105	     93.77416466
